<?xml version="1.0" encoding="iso-8859-1"?>
<!-- Generator: Adobe Illustrator 21.0.0, SVG Export Plug-In . SVG Version: 6.00 Build 0)  -->
<svg version="1.1" id="Capa_1" xmlns="http://www.w3.org/2000/svg" xmlns:xlink="http://www.w3.org/1999/xlink" x="0px" y="0px"
	 viewBox="0 0 512 512" style="enable-background:new 0 0 512 512;" xml:space="preserve">
<g id="XMLID_79_">
	<path id="XMLID_80_" style="fill:#EBEEF2;" d="M512,59.822v414.906c0,6.224-5.04,11.276-11.276,11.276H11.276
		C5.04,486.004,0,480.953,0,474.729V59.822C0,41.15,15.143,25.996,33.827,25.996h444.347C496.857,25.996,512,41.15,512,59.822z"/>
	<path id="XMLID_81_" style="fill:#D3D8DF;" d="M512,59.817v414.916c0,6.222-5.038,11.27-11.28,11.27h-22.664
		c6.243,0,11.28-5.048,11.28-11.27V59.817c0-18.667-15.144-33.821-33.831-33.821h22.664C496.856,25.997,512,41.15,512,59.817z"/>
	<path id="XMLID_82_" style="fill:#EB5777;" d="M512,59.817v94.344H0V59.817C0,41.15,15.144,25.997,33.831,25.997h444.338
		C496.856,25.997,512,41.15,512,59.817z"/>
	<path id="XMLID_83_" style="fill:#CE3F63;" d="M512,59.817v94.344h-22.664V59.817c0-18.667-15.144-33.821-33.831-33.821h22.664
		C496.856,25.997,512,41.15,512,59.817z"/>
	<g id="XMLID_84_">
		<g id="XMLID_85_">
			<g id="XMLID_86_">
				<circle style="fill:#EB5777;" cx="145.908" cy="318.586" r="90.588"/>
			</g>
			<path id="XMLID_87_" style="fill:#EBEEF2;" d="M159.131,345.256h-5.195v-61.067c0-2.701-1.411-5.207-3.721-6.608
				c-2.31-1.401-5.185-1.494-7.579-0.242l-13.524,7.056c-3.783,1.974-5.25,6.641-3.276,10.425c1.974,3.783,6.64,5.251,10.424,3.276
				l2.223-1.16v48.321h-5.195c-4.267,0-7.726,3.459-7.726,7.726c0,4.268,3.459,7.726,7.726,7.726h25.843
				c4.267,0,7.726-3.459,7.726-7.726C166.857,348.715,163.398,345.256,159.131,345.256z"/>
		</g>
		<path id="XMLID_88_" style="fill:#EB5777;" d="M304.285,242.895h-10.348c-4.268,0-7.726-3.459-7.726-7.726
			c0-4.268,3.459-7.726,7.726-7.726h10.348c4.268,0,7.726,3.459,7.726,7.726C312.011,239.436,308.552,242.895,304.285,242.895z"/>
		<path id="XMLID_89_" style="fill:#EB5777;" d="M355.082,242.895h-10.347c-4.268,0-7.726-3.459-7.726-7.726
			c0-4.268,3.459-7.726,7.726-7.726h10.347c4.268,0,7.726,3.459,7.726,7.726C362.809,239.436,359.35,242.895,355.082,242.895z"/>
		<path id="XMLID_90_" style="fill:#EB5777;" d="M405.881,242.895h-10.348c-4.268,0-7.726-3.459-7.726-7.726
			c0-4.268,3.459-7.726,7.726-7.726h10.348c4.268,0,7.726,3.459,7.726,7.726C413.608,239.436,410.149,242.895,405.881,242.895z"/>
		<path id="XMLID_91_" style="fill:#EB5777;" d="M456.68,242.895h-10.348c-4.268,0-7.726-3.459-7.726-7.726
			c0-4.268,3.459-7.726,7.726-7.726h10.348c4.268,0,7.726,3.459,7.726,7.726C464.406,239.436,460.948,242.895,456.68,242.895z"/>
		<path id="XMLID_92_" style="fill:#5F9EEB;" d="M304.285,282.735h-10.348c-4.268,0-7.726-3.459-7.726-7.726
			s3.459-7.726,7.726-7.726h10.348c4.268,0,7.726,3.459,7.726,7.726S308.552,282.735,304.285,282.735z"/>
		<path id="XMLID_93_" style="fill:#5F9EEB;" d="M355.082,282.735h-10.347c-4.268,0-7.726-3.459-7.726-7.726
			s3.459-7.726,7.726-7.726h10.347c4.268,0,7.726,3.459,7.726,7.726S359.35,282.735,355.082,282.735z"/>
		<path id="XMLID_94_" style="fill:#5F9EEB;" d="M405.881,282.735h-10.348c-4.268,0-7.726-3.459-7.726-7.726
			s3.459-7.726,7.726-7.726h10.348c4.268,0,7.726,3.459,7.726,7.726S410.149,282.735,405.881,282.735z"/>
		<path id="XMLID_95_" style="fill:#5F9EEB;" d="M456.68,282.735h-10.348c-4.268,0-7.726-3.459-7.726-7.726s3.459-7.726,7.726-7.726
			h10.348c4.268,0,7.726,3.459,7.726,7.726S460.948,282.735,456.68,282.735z"/>
		<path id="XMLID_96_" style="fill:#5F9EEB;" d="M304.285,322.575h-10.348c-4.268,0-7.726-3.459-7.726-7.726
			s3.459-7.726,7.726-7.726h10.348c4.268,0,7.726,3.459,7.726,7.726S308.552,322.575,304.285,322.575z"/>
		<path id="XMLID_97_" style="fill:#5F9EEB;" d="M355.082,322.575h-10.347c-4.268,0-7.726-3.459-7.726-7.726
			s3.459-7.726,7.726-7.726h10.347c4.268,0,7.726,3.459,7.726,7.726S359.35,322.575,355.082,322.575z"/>
		<path id="XMLID_98_" style="fill:#5F9EEB;" d="M405.881,322.575h-10.348c-4.268,0-7.726-3.459-7.726-7.726
			s3.459-7.726,7.726-7.726h10.348c4.268,0,7.726,3.459,7.726,7.726S410.149,322.575,405.881,322.575z"/>
		<path id="XMLID_99_" style="fill:#5F9EEB;" d="M456.68,322.575h-10.348c-4.268,0-7.726-3.459-7.726-7.726s3.459-7.726,7.726-7.726
			h10.348c4.268,0,7.726,3.459,7.726,7.726S460.948,322.575,456.68,322.575z"/>
		<path id="XMLID_100_" style="fill:#5F9EEB;" d="M304.285,362.416h-10.348c-4.268,0-7.726-3.459-7.726-7.726
			c0-4.268,3.459-7.726,7.726-7.726h10.348c4.268,0,7.726,3.459,7.726,7.726C312.011,358.957,308.552,362.416,304.285,362.416z"/>
		<path id="XMLID_101_" style="fill:#5F9EEB;" d="M355.082,362.416h-10.347c-4.268,0-7.726-3.459-7.726-7.726
			c0-4.268,3.459-7.726,7.726-7.726h10.347c4.268,0,7.726,3.459,7.726,7.726C362.809,358.957,359.35,362.416,355.082,362.416z"/>
		<path id="XMLID_102_" style="fill:#5F9EEB;" d="M405.881,362.416h-10.348c-4.268,0-7.726-3.459-7.726-7.726
			c0-4.268,3.459-7.726,7.726-7.726h10.348c4.268,0,7.726,3.459,7.726,7.726C413.608,358.957,410.149,362.416,405.881,362.416z"/>
		<path id="XMLID_103_" style="fill:#5F9EEB;" d="M456.68,362.416h-10.348c-4.268,0-7.726-3.459-7.726-7.726
			c0-4.268,3.459-7.726,7.726-7.726h10.348c4.268,0,7.726,3.459,7.726,7.726C464.406,358.957,460.948,362.416,456.68,362.416z"/>
		<path id="XMLID_104_" style="fill:#5F9EEB;" d="M304.285,402.256h-10.348c-4.268,0-7.726-3.459-7.726-7.726
			s3.459-7.726,7.726-7.726h10.348c4.268,0,7.726,3.459,7.726,7.726S308.552,402.256,304.285,402.256z"/>
		<path id="XMLID_105_" style="fill:#5F9EEB;" d="M355.082,402.256h-10.347c-4.268,0-7.726-3.459-7.726-7.726
			s3.459-7.726,7.726-7.726h10.347c4.268,0,7.726,3.459,7.726,7.726S359.35,402.256,355.082,402.256z"/>
		<path id="XMLID_106_" style="fill:#5F9EEB;" d="M405.881,402.256h-10.348c-4.268,0-7.726-3.459-7.726-7.726
			s3.459-7.726,7.726-7.726h10.348c4.268,0,7.726,3.459,7.726,7.726S410.149,402.256,405.881,402.256z"/>
		<path id="XMLID_107_" style="fill:#5F9EEB;" d="M456.68,402.256h-10.348c-4.268,0-7.726-3.459-7.726-7.726
			s3.459-7.726,7.726-7.726h10.348c4.268,0,7.726,3.459,7.726,7.726S460.948,402.256,456.68,402.256z"/>
	</g>
	<g id="XMLID_108_">
		<path id="XMLID_109_" style="fill:#EBEEF2;" d="M206.875,119.686h-10.161c-11.311,0-20.513-9.201-20.513-20.512V80.987
			c0-11.311,9.202-20.513,20.513-20.513h10.161c11.311,0,20.513,9.202,20.513,20.513v18.186
			C227.387,110.484,218.186,119.686,206.875,119.686z M196.713,75.927c-2.79,0-5.06,2.27-5.06,5.06v18.186
			c0,2.79,2.27,5.059,5.06,5.059h10.161c2.79,0,5.06-2.27,5.06-5.059V80.987c0-2.791-2.27-5.06-5.06-5.06H196.713z"/>
		<path id="XMLID_112_" style="fill:#EBEEF2;" d="M328.072,75.927H295.36c-4.268,0-7.726-3.459-7.726-7.726s3.459-7.726,7.726-7.726
			h32.712c4.268,0,7.726,3.459,7.726,7.726S332.34,75.927,328.072,75.927z"/>
		<path id="XMLID_113_" style="fill:#EBEEF2;" d="M264.359,119.686h-10.161c-11.311,0-20.513-9.201-20.513-20.512V80.987
			c0-11.311,9.202-20.513,20.513-20.513h10.161c9.199,0,17.328,6.199,19.768,15.075c1.131,4.114-1.288,8.366-5.402,9.497
			c-4.116,1.138-8.366-1.288-9.497-5.402c-0.602-2.188-2.604-3.717-4.868-3.717h-10.161c-2.79,0-5.06,2.27-5.06,5.06v18.186
			c0,2.79,2.27,5.059,5.06,5.059h10.161c1.962,0,3.71-1.111,4.562-2.898c1.836-3.854,6.448-5.486,10.299-3.651
			c3.852,1.836,5.487,6.447,3.651,10.299C279.483,115.092,272.216,119.686,264.359,119.686z"/>
		<path id="XMLID_114_" style="fill:#EBEEF2;" d="M311.716,119.686c-4.268,0-7.726-3.459-7.726-7.726V70.08
			c0-4.268,3.459-7.726,7.726-7.726s7.726,3.459,7.726,7.726v41.879C319.443,116.227,315.984,119.686,311.716,119.686z"/>
	</g>
	<path id="XMLID_115_" style="fill:#5F9EEB;" d="M67.889,443.519c-0.024,0-0.047,0-0.07,0l-0.113-0.001
		c-4.267-0.038-7.695-3.528-7.657-7.796c0.038-4.242,3.49-7.657,7.724-7.657c0.024,0,0.047,0,0.07,0l0.113,0.001
		c4.267,0.038,7.695,3.528,7.657,7.796C75.576,440.104,72.124,443.519,67.889,443.519z"/>
	<path id="XMLID_116_" style="fill:#5F9EEB;" d="M89.225,443.519c-0.024,0-0.047,0-0.07,0l-0.113-0.001
		c-4.267-0.038-7.695-3.528-7.657-7.796c0.038-4.242,3.49-7.657,7.724-7.657c0.024,0,0.047,0,0.07,0l0.113,0.001
		c4.267,0.038,7.695,3.528,7.657,7.796C96.911,440.104,93.459,443.519,89.225,443.519z"/>
</g>
<g>
</g>
<g>
</g>
<g>
</g>
<g>
</g>
<g>
</g>
<g>
</g>
<g>
</g>
<g>
</g>
<g>
</g>
<g>
</g>
<g>
</g>
<g>
</g>
<g>
</g>
<g>
</g>
<g>
</g>
</svg>
