<?xml version="1.0" encoding="utf-8"?>
<!-- Generator: Adobe Illustrator 18.0.0, SVG Export Plug-In . SVG Version: 6.00 Build 0)  -->
<!DOCTYPE svg PUBLIC "-//W3C//DTD SVG 1.1//EN" "http://www.w3.org/Graphics/SVG/1.1/DTD/svg11.dtd">
<svg version="1.1" id="Layer_1" xmlns="http://www.w3.org/2000/svg" xmlns:xlink="http://www.w3.org/1999/xlink" x="0px" y="0px"
	 viewBox="0 0 65.3 71.8" enable-background="new 0 0 65.3 71.8" xml:space="preserve">
<g>
	<path fill-rule="evenodd" clip-rule="evenodd" fill="#CBEBF3" d="M32,43.5c-4.4,6.1-3.6,11.4-6,23.4c-0.9,4.6-6.8,4.6-8.9,0.6
		c-3.2-6.1-7.1-15.2-7.7-18.3C7.1,37.9,1.9,32.8,1.7,20.1C1.6,10.2,7.2,2.8,15.3,0.9c7.2-1.6,8.7,2.6,17,2.6c0.1,0,0.3,0,0.4,0v1.2
		l0-1.2c0.1,0,0.3,0,0.4,0c8.4,0,9.8-4.2,17-2.6c8.1,1.8,13.7,9.2,13.5,19.2c-0.2,12.7-5.3,17.8-7.6,29.1
		c-0.6,3.1-4.5,12.2-7.7,18.3c-2.2,4-8,4-8.9-0.6c-2.4-12-1.6-17.3-6-23.4C33,43.5,32.5,43.5,32,43.5z"/>
	<path fill-rule="evenodd" clip-rule="evenodd" fill="#B2E1E9" d="M32.7,43.5h0.8c4.4,6.1,3.6,11.4,6,23.4c0.9,4.6,6.8,4.6,8.9,0.6
		c3.2-6.1,7.1-15.2,7.7-18.3c2.3-11.3,7.5-16.4,7.6-29.1c0.1-9.9-5.4-17.3-13.5-19.2c-7.2-1.6-8.7,2.6-17,2.6c-0.1,0-0.3,0-0.4,0
		v39.3L32.7,43.5z"/>
	<path fill-rule="evenodd" clip-rule="evenodd" fill="#B2E1E9" d="M51.8,1.4c-11.2,0.2-9.2,6.8-18.5,7C24,8.7,24.2,2,15,1l0.2-0.1
		c7.2-1.6,8.7,2.6,17,2.6C39.5,3.5,45.1-0.4,51.8,1.4z"/>
	<path fill-rule="evenodd" clip-rule="evenodd" fill="#92C9D1" d="M51.8,1.4c-11.2,0.2-13.8,6.9-18.5,7s-0.4,0-0.6,0V3.5
		c3.8-0.1,6.6-1,9.2-1.9C44.7,0.7,47.5,0,51.8,1.4z"/>
</g>
</svg>
